<?xml version="1.0" encoding="UTF-8"?>
<svg height="900" viewBox="0 0 900 800" width="800" xmlns="http://www.w3.org/2000/svg" xmlns:xlink="http://www.w3.org/1999/xlink">
  <g>
    <rect display="none" height="873.61" opacity="0" width="757.50" x="0.00" y="0.00"/>
    <path d="M 667.00 394.84 C 693.75 394.59 715.75 373.09 715.75 346.59 C 715.75 319.84 693.75 298.09 667.00 297.59 C 640.00 297.09 618.00 319.84 618.00 346.59 C 618.00 373.09 640.00 395.34 667.00 394.84 Z M 667.00 537.09 C 693.75 537.09 715.75 515.09 715.75 488.09 C 715.75 461.09 693.75 439.59 667.00 439.59 C 640.00 439.59 618.00 461.09 618.00 488.09 C 618.00 515.09 640.00 537.09 667.00 537.09 Z M 374.00 334.84 C 387.00 334.84 397.25 324.09 397.25 310.84 C 397.25 298.09 387.00 287.59 374.00 287.59 C 361.50 287.59 351.00 298.09 351.00 310.84 C 351.00 324.09 361.50 334.84 374.00 334.84 Z M 454.25 357.09 C 467.75 357.09 477.50 346.34 477.50 333.59 C 477.50 320.34 467.75 309.84 454.25 309.84 C 441.75 309.84 431.75 320.34 431.75 333.59 C 431.75 346.34 441.75 357.09 454.25 357.09 Z M 515.00 413.84 C 528.00 413.84 538.75 403.59 538.75 390.59 C 538.75 377.59 528.00 366.84 515.00 366.84 C 502.50 366.84 492.50 377.59 492.50 390.59 C 492.50 403.59 502.50 413.84 515.00 413.84 Z M 535.25 491.59 C 548.00 491.59 558.25 481.09 558.25 468.34 C 558.25 455.34 548.00 445.09 535.25 445.09 C 522.25 445.09 512.00 455.34 512.00 468.34 C 512.00 481.09 522.25 491.59 535.25 491.59 Z M 515.00 569.59 C 528.00 569.59 538.75 558.84 538.75 545.84 C 538.75 532.84 528.00 522.59 515.00 522.59 C 502.50 522.59 492.50 532.84 492.50 545.84 C 492.50 558.84 502.50 569.59 515.00 569.59 Z M 454.25 629.84 C 467.75 629.84 477.50 619.34 477.50 606.09 C 477.50 593.34 467.75 582.59 454.25 582.59 C 441.75 582.59 431.75 593.34 431.75 606.09 C 431.75 619.34 441.75 629.84 454.25 629.84 Z M 374.00 655.34 C 387.00 655.34 397.25 644.84 397.25 632.09 C 397.25 618.84 387.00 608.09 374.00 608.09 C 361.50 608.09 351.00 618.84 351.00 632.09 C 351.00 644.84 361.50 655.34 374.00 655.34 Z M 293.75 629.84 C 306.50 629.84 316.50 619.34 316.50 606.09 C 316.50 593.34 306.50 582.59 293.75 582.59 C 280.50 582.59 270.50 593.34 270.50 606.09 C 270.50 619.34 280.50 629.84 293.75 629.84 Z M 233.00 569.59 C 245.75 569.59 255.75 558.84 255.75 545.84 C 255.75 532.84 245.75 522.59 233.00 522.59 C 220.25 522.59 209.50 532.84 209.50 545.84 C 209.50 558.84 220.25 569.59 233.00 569.59 Z M 213.00 491.59 C 225.75 491.59 236.25 481.09 236.25 468.34 C 236.25 455.34 225.75 445.09 213.00 445.09 C 200.25 445.09 190.00 455.34 190.00 468.34 C 190.00 481.09 200.25 491.59 213.00 491.59 Z M 233.00 413.84 C 245.75 413.84 255.75 403.59 255.75 390.59 C 255.75 377.59 245.75 366.84 233.00 366.84 C 220.25 366.84 209.50 377.59 209.50 390.59 C 209.50 403.59 220.25 413.84 233.00 413.84 Z M 293.75 357.09 C 306.50 357.09 316.50 346.34 316.50 333.59 C 316.50 320.34 306.50 309.84 293.75 309.84 C 280.50 309.84 270.50 320.34 270.50 333.59 C 270.50 346.34 280.50 357.09 293.75 357.09 Z M 374.00 417.09 C 387.00 417.09 397.25 406.84 397.25 393.84 C 397.25 380.84 387.00 370.09 374.00 370.09 C 361.50 370.09 351.00 380.84 351.00 393.84 C 351.00 406.84 361.50 417.09 374.00 417.09 Z M 449.50 449.84 C 462.50 449.84 472.50 438.84 472.50 426.59 C 472.50 413.84 462.50 403.09 449.50 403.09 C 437.00 403.09 426.00 413.84 426.00 426.59 C 426.00 438.84 437.00 449.84 449.50 449.84 Z M 449.50 539.59 C 462.50 539.59 472.50 529.09 472.50 516.34 C 472.50 503.09 462.50 492.84 449.50 492.84 C 437.00 492.84 426.00 503.09 426.00 516.34 C 426.00 529.09 437.00 539.59 449.50 539.59 Z M 374.00 572.84 C 387.00 572.84 397.25 561.84 397.25 548.84 C 397.25 536.09 387.00 525.59 374.00 525.59 C 361.50 525.59 351.00 536.09 351.00 548.84 C 351.00 561.84 361.50 572.84 374.00 572.84 Z M 298.50 539.59 C 311.25 539.59 322.00 529.09 322.00 516.34 C 322.00 503.09 311.25 492.84 298.50 492.84 C 285.75 492.84 275.75 503.09 275.75 516.34 C 275.75 529.09 285.75 539.59 298.50 539.59 Z M 298.50 449.84 C 311.25 449.84 322.00 438.84 322.00 426.59 C 322.00 413.84 311.25 403.09 298.50 403.09 C 285.75 403.09 275.75 413.84 275.75 426.59 C 275.75 438.84 285.75 449.84 298.50 449.84 Z M 374.00 494.59 C 387.00 494.59 397.25 484.34 397.25 471.34 C 397.25 458.59 387.00 448.09 374.00 448.09 C 361.50 448.09 351.00 458.59 351.00 471.34 C 351.00 484.34 361.50 494.59 374.00 494.59 Z M 687.75 222.34 L 701.25 180.09 L 257.00 35.84 C 245.50 31.84 232.75 38.34 229.25 50.09 C 225.25 61.34 232.00 74.09 243.25 78.09 Z M 168.50 765.34 L 731.25 765.34 C 796.00 765.34 828.75 732.59 828.75 669.09 L 828.75 274.09 C 828.75 210.34 796.00 177.59 731.25 177.59 L 168.50 177.59 C 104.00 177.59 71.25 210.09 71.25 274.09 L 71.25 669.09 C 71.25 733.09 104.00 765.34 168.50 765.34 Z M 169.50 721.09 C 134.50 721.09 115.50 702.59 115.50 666.59 L 115.50 276.34 C 115.50 240.59 134.50 221.84 169.50 221.84 L 730.50 221.84 C 764.75 221.84 784.25 240.59 784.25 276.34 L 784.25 666.59 C 784.25 702.59 764.75 721.09 730.50 721.09 Z" display="inline" fill="black" fill-opacity="0.85"/>
  </g>
</svg>
